<svg xmlns="http://www.w3.org/2000/svg" width="512" height="512" viewBox="0 0 512 512">
  <defs>
    <linearGradient id="bg" x1="0" y1="0" x2="1" y2="1">
      <stop offset="0" stop-color="#06101e"/><stop offset="1" stop-color="#140a2b"/>
    </linearGradient>
    <linearGradient id="g" x1="0" y1="0" x2="1" y2="1">
      <stop offset="0" stop-color="#5ae1ff"/><stop offset="1" stop-color="#c36bff"/>
    </linearGradient>
    <filter id="s" x="-20%" y="-20%" width="140%" height="140%">
      <feDropShadow dx="0" dy="10" stdDeviation="12" flood-color="#000" flood-opacity="0.4"/>
    </filter>
  </defs>
  <rect width="512" height="512" rx="96" fill="url(#bg)"/>
  <g filter="url(#s)">
    <path d="M256 86c52 38 108 38 164 38v154c0 106-70 174-164 206C162 452 92 384 92 278V124c56 0 112 0 164-38z" fill="#0f1936" stroke="#92a1ff" stroke-opacity="0.35" stroke-width="4"/>
    <path d="M256 170c30 34 58 78 58 122 0 56-30 92-58 112-28-20-58-56-58-112 0-44 28-88 58-122z" fill="url(#g)" opacity="0.95"/>
    <path d="M256 206c14 22 24 50 24 76 0 26-10 46-24 62-14-16-24-36-24-62 0-26 10-54 24-76z" fill="#eaf0ff" opacity="0.92"/>
  </g>
  <text x="256" y="472" text-anchor="middle" font-size="34" font-family="system-ui, -apple-system, Segoe UI, Roboto, Arial" fill="#eaf0ff" opacity="0.9">Baikonur Shooter</text>
</svg>